# AST/ASF file generated using VICON BodyLanguage
# -----------------------------------------------
:version 1.10
:name VICON
:units
  mass 1.0
  length 0.45
  angle deg
:documentation
   .ast/.asf automatically generated from VICON data using
   VICON BodyBuilder and BodyLanguage model FoxedUp or BRILLIANT.MOD
:root
   order TX TY TZ RX RY RZ
   axis XYZ
   position 0 0 0  
   orientation 0 0 0 
:bonedata
  begin
     id 1 
     name lhipjoint
     direction 0.588788 -0.725889 0.355548 
     length 2.37778 
     axis 0 0 0  XYZ
  end
  begin
     id 2 
     name lfemur
     direction 0.34202 -0.939693 0  
     length 6.86393  
     axis 0 0 20  XYZ
    dof rx ry rz
    limits (-160.0 20.0)
           (-70.0 70.0)
           (-60.0 70.0)
  end
  begin
     id 3 
     name ltibia
     direction 0.34202 -0.939693 0   
     length 7.32851   
     axis 0 0 20   XYZ
    dof rx
    limits (-10.0 170.0)
  end
  begin
     id 4 
     name lfoot
     direction 0.0626533 -0.172138 0.983078   
     length 1.98929   
     axis -90 7.62852e-016 20   XYZ
    dof rx rz
    limits (-45.0 90.0)
           (-70.0 20.0)
  end
  begin
     id 5 
     name ltoes
     direction 1.53647e-011 -4.21734e-011 1   
     length 1.00479   
     axis -90 7.62852e-016 20   XYZ
    dof rx
    limits (-90.0 20.0)
  end
  begin
     id 6 
     name rhipjoint
     direction -0.59141 -0.724168 0.354705   
     length 2.38343  
     axis 0 0 0  XYZ 
  end
  begin
     id 7 
     name rfemur
     direction -0.34202 -0.939693 0   
     length 6.95589   
     axis 0 0 -20   XYZ
    dof rx ry rz
    limits (-160.0 20.0)
           (-70.0 70.0)
           (-70.0 60.0)
  end
  begin
     id 8 
     name rtibia
     direction -0.34202 -0.939693 0   
     length 7.32327   
     axis 0 0 -20   XYZ
    dof rx
    limits (-10.0 170.0)
 end
 begin
     id 9 
     name rfoot
     direction -0.0660461 -0.18146 0.981178   
     length 1.85272  
     axis -90 -7.62852e-016 -20   XYZ
    dof rx rz
    limits (-45.0 90.0)
           (-20.0 70.0)
  end
  begin
     id 10 
     name rtoes
     direction -1.53586e-011 -4.21988e-011 1   
     length 0.93746   
     axis -90 -7.62852e-016 -20   XYZ
    dof rx
    limits (-90.0 20.0)
  end
  begin
     id 11 
     name lowerback
     direction -0.0107982 0.991059 0.13299   
     length 1.98691   
     axis 0 0 0   XYZ
    dof rx ry rz
    limits (-20.0 45.0)
           (-30.0 30.0)
           (-30.0 30.0)
  end
  begin
     id 12 
     name upperback
     direction 0.0076296 0.999916 0.0104576   
     length 1.99501   
     axis 0 0 0   XYZ
    dof rx ry rz
    limits (-20.0 45.0)
           (-30.0 30.0)
           (-30.0 30.0)
  end
  begin
     id 13 
     name thorax
     direction 0.01176 0.998615 -0.0512909   
     length 2.03144   
     axis 0 0 0   XYZ
    dof rx ry rz
    limits (-20.0 45.0)
           (-30.0 30.0)
           (-30.0 30.0)
  end
  begin
     id 14 
     name lowerneck
     direction -0.0171909 0.999644 0.0204011   
     length 1.71818   
     axis 0 0 0   XYZ
    dof rx ry rz
    limits (-20.0 45.0)
           (-30.0 30.0)
           (-30.0 30.0)
  end
  begin
     id 15 
     name upperneck
     direction 0.0250902 0.997482 -0.0663316   
     length 1.66199   
     axis 0 0 0   XYZ
    dof rx ry rz
    limits (-20.0 45.0)
           (-30.0 30.0)
           (-30.0 30.0)
  end
  begin
     id 16
     name head
     direction 0.00881535 0.99956 -0.0283365  
     length 1.81545  
     axis 0 0 0   XYZ
    dof rx ry rz
    limits (-20.0 45.0)
           (-30.0 30.0)
           (-30.0 30.0)
  end
  begin
     id 17 
     name lclavicle
     direction 0.840411 0.486876 -0.238035  
     length 3.30409  
     axis 0 0 0   XYZ
    dof ry rz
    limits (-20.0 10.0)
           (0.0 20.0)
  end
  begin
     id 18 
     name lhumerus
     direction 1 -4.48977e-011 -5.16239e-027   
     length 4.62672   
     axis 180 -30 -90   XYZ
    dof rx ry rz
    limits (-60.0 90.0)
           (-90.0 90.0)
           (-90.0 90.0)
  end
  begin
     id 19
     name lradius
     direction 1 -4.48977e-011 -8.71171e-027   
     length 3.11018   
     axis 180 -30 -90   XYZ
    dof rx
    limits (-10.0 170.0)
  end
  begin
     id 20
     name lwrist
     direction 1 -4.48912e-011 -1.03764e-026   
     length 1.55509   
     axis 9.09556e-015 90 90   XYZ
    dof ry
    limits (-180.0 0.0)
 end
  begin
     id 21 
     name lhand
     direction 1 -4.49072e-011 -2.07528e-026   
     length 0.743834   
     axis 1.3242e-014 90 90   XYZ
    dof rx rz
    limits (-90.0 90.0)
           (-45.0 45.0)
  end
  begin
     id 22 
     name lfingers
     direction 1 -4.48909e-011 -4.15056e-026   
     length 0.599698   
     axis 2.64841e-014 90 90   XYZ
    dof rx
    limits (0.0 90.0)
  end
  begin
     id 23
     name lthumb
     direction 0.707107 -6.35013e-011 0.707107   
     length 0.86105   
     axis -90 45 2.85299e-015   XYZ
    dof rx rz
    limits (-45.0 45.0)
           (-45.0 45.0)
  end
  begin
     id 24 
     name rclavicle
     direction -0.835208 0.500237 -0.228452   
     length 3.2716  
     axis 0 0 0   XYZ 
    dof ry rz
    limits (-10.0 20.0)
           (-20.0 0.0)
  end
  begin
     id 25 
     name rhumerus
     direction -1 -4.48978e-011 -5.1953e-028  
     length 4.55919   
     axis 180 30 90   XYZ
    dof rx ry rz
    limits (-90.0 60.0)
           (-90.0 90.0)
           (-90.0 90.0)
  end
  begin
     id 26 
     name rradius
     direction -1 -4.48961e-011 -5.99546e-027   
     length 3.22748   
     axis 180 30 90   XYZ
    dof rx
    limits (-10.0 170.0)
  end
  begin
     id 27 
     name rwrist
     direction -1 -4.48986e-011 -1.03764e-026   
     length 1.61374   
     axis 9.09556e-015 -90 -90   XYZ
    dof ry
    limits (-180.0 0.0)
  end
  begin
     id 28
     name rhand
     direction -1 -4.4899e-011 -2.07528e-026   
     length 0.700882   
     axis 1.3242e-014 -90 -90   XYZ
    dof rx rz
    limits (-90.0 90.0)
           (-45.0 45.0)
  end
  begin
     id 29
     name rfingers
     direction -1 -4.48991e-011 -4.15056e-026   
     length 0.565069   
     axis 2.64841e-014 -90 -90   XYZ
    dof rx
    limits (0.0 90.0)
  end
  begin
     id 30
     name rthumb
     direction -0.707107 -6.34804e-011 0.707107   
     length 0.811329   
     axis -90 -45 -2.85299e-015   XYZ
    dof rx rz
    limits (-45.0 45.0)
           (-45.0 45.0)
  end
:hierarchy
  begin
    root lhipjoint rhipjoint lowerback
    lhipjoint lfemur
    lfemur ltibia
    ltibia lfoot
    lfoot ltoes
    rhipjoint rfemur
    rfemur rtibia
    rtibia rfoot
    rfoot rtoes
    lowerback upperback
    upperback thorax
    thorax lowerneck lclavicle rclavicle
    lowerneck upperneck
    upperneck head
    lclavicle lhumerus
    lhumerus lradius
    lradius lwrist
    lwrist lhand lthumb
    lhand lfingers
    rclavicle rhumerus
    rhumerus rradius
    rradius rwrist
    rwrist rhand rthumb
    rhand rfingers
  end

#!OML:ASF F:\VICON\USERDATA\INSTALL\SteveWalk\SteveWalk.ASF
:FULLY-SPECIFIED
:DEGREES
364
root 0.0499734 16.0438 28.9404 16.339 4.91713 -1.36156
lowerback -15.7941 -1.08 4.29605
upperback -5.23816 -2.17622 2.41985
thorax 3.21301 -1.07753 -0.277337
lowerneck -5.38849 -0.952737 -1.03034
upperneck 9.75698 -1.14038 -0.450386
head 4.162 -0.623296 -0.0281813
rclavicle 1.25483e-014 -1.51076e-014
rhumerus -66.0921 -43.0846 -33.8876
rradius 12.2047
rwrist 37.6374
rhand -14.8543 -33.4222
rfingers 7.12502
rthumb 11.3053 -63.0975
lclavicle 1.25483e-014 -1.51076e-014
lhumerus -28.1003 -1.69796 87.6399
lradius 43.59
lwrist 6.61104
lhand -22.0935 -20.8596
lfingers 7.12502
lthumb 4.31847 9.07636
rfemur -43.9647 -2.6068 26.8054
rtibia 36.2946
rfoot -10.5556 4.59108
rtoes -8.04139
lfemur -10.6422 -1.10522 -18.4892
ltibia 51.4748
lfoot 18.4974 -15.8763
ltoes -15.4409
365
root 0.0223405 16.0648 29.1347 16.4365 4.68202 -1.50666
lowerback -15.799 -0.95887 4.09316
upperback -5.39062 -1.98316 2.51393
thorax 3.07201 -0.984517 -0.0280471
lowerneck -4.90799 -0.961805 -0.946053
upperneck 9.61418 -1.16489 -0.47231
head 4.01418 -0.632281 -0.0482422
rclavicle 1.32316e-014 -2.62396e-014
rhumerus -64.5552 -42.6724 -36.0126
rradius 12.4787
rwrist 35.9262
rhand -15.1357 -32.4516
rfingers 7.12502
rthumb 11.0338 -62.1415
lclavicle 1.32316e-014 -2.62396e-014
lhumerus -28.6751 -1.45631 87.8351
lradius 42.7564
lwrist 6.25198
lhand -22.1504 -21.2094
lfingers 7.12502
lthumb 4.2635 8.72768
rfemur -43.3743 -1.93506 26.9045
rtibia 36.2564
rfoot -10.999 4.10231
rtoes -8.3372
lfemur -12.5492 -0.836142 -18.1527
ltibia 54.303
lfoot 19.7709 -16.2615
ltoes -19.3215
366
root 0.00497214 16.0851 29.3226 16.4605 4.66107 -1.617
lowerback -15.7181 -0.870391 4.03187
upperback -5.54066 -1.84753 2.57135
thorax 2.87813 -0.921024 0.094403
lowerneck -4.23697 -0.984636 -1.07706
upperneck 9.37939 -1.20713 -0.34042
head 3.80036 -0.650542 0.0213032
rclavicle 1.19271e-015 1.43125e-014
rhumerus -63.0393 -42.2682 -37.9967
rradius 12.6342
rwrist 34.375
rhand -15.1652 -32.024
rfingers 7.12502
rthumb 11.0054 -61.7155
lclavicle 1.19271e-015 1.43125e-014
lhumerus -29.1611 -1.33626 88.0432
lradius 41.7223
lwrist 5.82605
lhand -22.2798 -21.5732
lfingers 7.12502
lthumb 4.13858 8.36632
rfemur -42.6666 -1.85303 27.1262
rtibia 36.2034
rfoot -11.6043 3.95393
rtoes -8.72891
lfemur -14.3434 -0.680624 -17.8554
ltibia 57.0153
lfoot 20.029 -16.3575
ltoes -21.5354
367
root 0.00121627 16.1084 29.5166 16.3994 4.88487 -1.58503
lowerback -15.6358 -0.846753 4.02812
upperback -5.69351 -1.80248 2.56651
thorax 2.6738 -0.902995 0.102914
lowerneck -3.62228 -1.06253 -1.30616
upperneck 9.29851 -1.31852 -0.182878
head 3.65556 -0.706442 0.11209
rclavicle -1.19768e-014 1.66979e-014
rhumerus -61.1124 -41.338 -40.699
rradius 12.9336
rwrist 32.1949
rhand -14.8751 -32.0221
rfingers 7.12502
rthumb 11.2852 -61.6985
lclavicle -1.19768e-014 1.66979e-014
lhumerus -29.8045 -1.12412 88.2156
lradius 40.7555
lwrist 4.99768
lhand -22.2395 -21.7833
lfingers 7.12502
lthumb 4.17746 8.15549
rfemur -41.804 -2.46845 27.356
rtibia 36.2586
rfoot -12.4588 4.03828
rtoes -9.88992
lfemur -15.9458 -0.769785 -17.7502
ltibia 59.5373
lfoot 19.5754 -15.6988
ltoes -20.6657
368
root 0.00298362 16.1308 29.7066 16.5037 5.09774 -1.51431
lowerback -15.7064 -0.720646 4.02437
upperback -5.59299 -1.64397 2.57076
thorax 2.82185 -0.820455 0.134671
lowerneck -4.40734 -1.26685 -1.53983
upperneck 9.63776 -1.56035 -0.183588
head 3.93383 -0.836099 0.135834
rclavicle 4.34841e-015 -1.82882e-014
rhumerus -58.3196 -40.4728 -44.2813
rradius 13.6108
rwrist 29.1372
rhand -14.4793 -32.3813
rfingers 7.12502
rthumb 11.6669 -62.0365
lclavicle 4.34841e-015 -1.82882e-014
lhumerus -29.6647 -0.9614 88.5509
lradius 39.6126
lwrist 3.915
lhand -22.1309 -21.9227
lfingers 7.12502
lthumb 4.28239 8.01399
rfemur -41.1817 -3.06729 27.5149
rtibia 36.3562
rfoot -13.2948 4.08178
rtoes -11.3702
lfemur -17.789 -0.772541 -17.7299
ltibia 61.8974
lfoot 18.4743 -14.8565
ltoes -19.3779
369
root 0.00189889 16.1552 29.8966 16.6322 5.2134 -1.47812
lowerback -16.0633 -0.747831 3.96011
upperback -5.64427 -1.68753 2.55929
thorax 2.95805 -0.839524 0.145566
lowerneck -3.88301 -1.24674 -1.27368
upperneck 9.52859 -1.54734 -0.352038
head 3.78705 -0.826658 0.0380402
rclavicle 1.24737e-014 1.43125e-014
rhumerus -55.5187 -38.6631 -48.4437
rradius 14.4876
rwrist 25.6413
rhand -14.0335 -33.0015
rfingers 7.12502
rthumb 12.0968 -62.6318
lclavicle 1.24737e-014 1.43125e-014
lhumerus -30.1298 -0.653026 88.5055
lradius 38.5722
lwrist 3.14482
lhand -22.1642 -21.972
lfingers 7.12502
lthumb 4.25026 7.96536
rfemur -40.5729 -3.40461 27.5918
rtibia 36.3386
rfoot -13.9166 4.31209
rtoes -9.97612
lfemur -19.6455 -0.649165 -17.7028
ltibia 64.0494
lfoot 17.0584 -13.6929
ltoes -17.7535
